<svg width="24" height="24" viewBox="0 0 24 24" fill="none" xmlns="http://www.w3.org/2000/svg">
<path opacity="0.4" d="M11.969 22C17.492 22 21.969 17.523 21.969 12C21.969 6.477 17.492 2 11.969 2C6.44599 2 1.96899 6.477 1.96899 12C1.96899 17.523 6.44599 22 11.969 22Z" fill="#E23E3E"/>
<path d="M14.9701 10.231L12.0701 8.561C11.3501 8.141 10.4801 8.141 9.76011 8.561C9.04011 8.981 8.61011 9.721 8.61011 10.561V13.911C8.61011 14.741 9.04011 15.491 9.76011 15.911C10.1092 16.1143 10.5061 16.2215 10.9101 16.2215C11.3141 16.2215 11.711 16.1143 12.0601 15.911L14.9601 14.241C15.6801 13.821 16.1101 13.081 16.1101 12.241C16.1301 11.401 15.7001 10.651 14.9701 10.231Z" fill="#E23E3E"/>
</svg>
