<svg width="14" height="12" viewBox="0 0 14 12" fill="none" xmlns="http://www.w3.org/2000/svg">
<path fill-rule="evenodd" clip-rule="evenodd" d="M7.74219 0.35667C7.50602 0.609415 7.50685 1.01831 7.74404 1.26997L11.5934 5.35414H0.939397L0.857159 5.36003C0.561344 5.40279 0.333344 5.673 0.333344 5.99994C0.333344 6.35661 0.604683 6.64575 0.939397 6.64575H11.5921L7.744 10.7298L7.68518 10.8021C7.50865 11.0545 7.52751 11.4134 7.74223 11.6431C7.97841 11.8958 8.36214 11.8967 8.59931 11.645L13.4739 6.47212C13.5873 6.35931 13.6601 6.20063 13.6661 6.02383C13.6722 5.85009 13.6129 5.67421 13.4881 5.5418L8.59928 0.354704L8.53118 0.292331C8.29354 0.105287 7.95689 0.126902 7.74219 0.35667Z" fill="white"/>
</svg>
