<svg width="14" height="12" viewBox="0 0 14 12" fill="none" xmlns="http://www.w3.org/2000/svg">
<path fill-rule="evenodd" clip-rule="evenodd" d="M7.74216 0.35667C7.50599 0.609415 7.50682 1.01831 7.74401 1.26997L11.5934 5.35414H0.939366L0.857129 5.36003C0.561313 5.40279 0.333313 5.673 0.333313 5.99994C0.333313 6.35661 0.604652 6.64575 0.939366 6.64575H11.5921L7.74397 10.7298L7.68515 10.8021C7.50862 11.0545 7.52748 11.4134 7.7422 11.6431C7.97838 11.8958 8.36211 11.8967 8.59928 11.645L13.4739 6.47213C13.5873 6.35931 13.66 6.20064 13.6661 6.02383C13.6722 5.85009 13.6129 5.67421 13.4881 5.5418L8.59925 0.354704L8.53115 0.292331C8.29351 0.105287 7.95686 0.126902 7.74216 0.35667Z" fill="#E23E3E"/>
</svg>
