<svg width="12" height="12" viewBox="0 0 12 12" fill="none" xmlns="http://www.w3.org/2000/svg">
<path fill-rule="evenodd" clip-rule="evenodd" d="M7.01096 1.17843C7.01096 0.619661 6.55838 0.166687 6.00008 0.166687C5.44178 0.166687 4.9892 0.619661 4.9892 1.17843V4.98826H1.17754C0.619245 4.98826 0.166656 5.44123 0.166656 6C0.166656 6.55877 0.619245 7.01175 1.17754 7.01175H4.9892V10.8216C4.9892 11.3804 5.44178 11.8334 6.00008 11.8334C6.55838 11.8334 7.01096 11.3804 7.01096 10.8216V7.01175H10.8224C11.3807 7.01175 11.8333 6.55877 11.8333 6C11.8333 5.44123 11.3807 4.98826 10.8224 4.98826H7.01096V1.17843Z" fill="white"/>
</svg>
