<svg width="16" height="14" viewBox="0 0 16 14" fill="none" xmlns="http://www.w3.org/2000/svg">
<path fill-rule="evenodd" clip-rule="evenodd" d="M8.89062 0.227988C8.60721 0.531282 8.6082 1.02196 8.89283 1.32395L13.5121 6.22495H0.727264L0.628579 6.23202C0.2736 6.28334 0 6.60758 0 6.99991C0 7.42791 0.325607 7.77488 0.727264 7.77488H13.5105L8.89279 12.6757L8.8222 12.7625C8.61036 13.0654 8.633 13.496 8.89066 13.7717C9.17408 14.075 9.63456 14.076 9.91916 13.774L15.7687 7.56654C15.9048 7.43116 15.9921 7.24075 15.9993 7.02858C16.0067 6.82009 15.9355 6.60903 15.7857 6.45015L9.91912 0.225628L9.8374 0.15078C9.55223 -0.0736718 9.14825 -0.0477335 8.89062 0.227988Z" fill="#303030"/>
</svg>
