<svg width="14" height="12" viewBox="0 0 14 12" fill="none" xmlns="http://www.w3.org/2000/svg">
<path fill-rule="evenodd" clip-rule="evenodd" d="M7.74222 0.35667C7.50605 0.609415 7.50688 1.01831 7.74407 1.26997L11.5934 5.35414H0.939427L0.85719 5.36003C0.561374 5.40279 0.333374 5.673 0.333374 5.99994C0.333374 6.35661 0.604713 6.64575 0.939427 6.64575H11.5922L7.74403 10.7298L7.68521 10.8021C7.50868 11.0545 7.52754 11.4134 7.74226 11.6431C7.97844 11.8958 8.36217 11.8967 8.59934 11.645L13.4739 6.47213C13.5874 6.35931 13.6601 6.20064 13.6661 6.02383C13.6723 5.85009 13.6129 5.67421 13.4881 5.5418L8.59931 0.354704L8.53121 0.292331C8.29357 0.105287 7.95692 0.126902 7.74222 0.35667Z" fill="#E23E3E"/>
</svg>
