<svg width="14" height="12" viewBox="0 0 14 12" fill="none" xmlns="http://www.w3.org/2000/svg">
<path fill-rule="evenodd" clip-rule="evenodd" d="M7.74216 0.35664C7.50599 0.609384 7.50682 1.01828 7.74401 1.26994L11.5934 5.35411H0.939366L0.857129 5.36C0.561313 5.40276 0.333313 5.67296 0.333313 5.99991C0.333313 6.35658 0.604652 6.64571 0.939366 6.64571H11.5921L7.74397 10.7298L7.68515 10.8021C7.50862 11.0545 7.52748 11.4133 7.7422 11.6431C7.97838 11.8958 8.36211 11.8966 8.59928 11.645L13.4739 6.4721C13.5873 6.35928 13.66 6.20061 13.6661 6.0238C13.6722 5.85005 13.6129 5.67418 13.4881 5.54177L8.59925 0.354673L8.53115 0.2923C8.29351 0.105257 7.95686 0.126872 7.74216 0.35664Z" fill="#9E2B2B"/>
</svg>
