<svg width="20" height="20" viewBox="0 0 20 20" fill="none" xmlns="http://www.w3.org/2000/svg">
<path d="M5.36577 2.77339C5.72088 2.59113 6.09375 2.5 6.48438 2.5C6.89276 2.51823 7.65625 2.79344 7.9581 2.9192C9.94673 3.72114 13.7464 6.34569 15.2024 7.94957C15.451 8.20474 15.7173 8.51458 15.7884 8.58749C16.0902 8.98846 16.25 9.48056 16.25 10.0109C16.25 10.483 16.108 10.9569 15.8239 11.3396C15.7706 11.4125 15.522 11.7224 15.3267 11.9228L15.2202 12.0322C13.7287 13.6908 10.0178 16.1877 8.13565 16.9897C8.13565 17.0079 7.01705 17.4818 6.48438 17.5H6.41335C5.59659 17.5 4.8331 17.0261 4.44247 16.2606C4.2294 15.8414 4.03409 14.6203 4.01634 14.6021C3.85653 13.5085 3.75 11.8335 3.75 9.99089C3.75 8.05893 3.85653 6.30924 4.05185 5.2339C4.05185 5.21567 4.24716 4.23147 4.37145 3.9034C4.56676 3.42953 4.92187 3.02855 5.36577 2.77339Z" fill="white"/>
</svg>
