<svg width="18" height="22" viewBox="0 0 18 22" fill="none" xmlns="http://www.w3.org/2000/svg">
<path fill-rule="evenodd" clip-rule="evenodd" d="M8.99608 0.76416C6.52139 0.76416 4.72157 1.89651 3.56012 3.3939C2.41698 4.86768 1.88513 6.69875 1.88513 8.18368C1.88513 8.60993 1.89808 8.92637 1.90791 9.16649L1.90792 9.16661C1.90993 9.21594 1.91182 9.26204 1.91344 9.30521C1.9231 9.56347 1.92114 9.68756 1.90128 9.81049C1.85611 10.0901 1.71309 10.4345 1.14168 11.6938C1.13598 11.7063 1.13063 11.719 1.12564 11.7319C0.71253 12.7943 0.80463 13.7717 1.29552 14.6C1.76394 15.3904 2.55144 15.9724 3.40271 16.3971C5.10503 17.2463 7.35563 17.6118 8.99608 17.6118C10.6361 17.6118 12.8864 17.2463 14.5887 16.3971C15.44 15.9724 16.2275 15.3904 16.6961 14.6001C17.1871 13.7719 17.2794 12.7945 16.8666 11.732C16.8616 11.7191 16.8562 11.7064 16.8505 11.6938C16.2791 10.4345 16.1361 10.0901 16.0909 9.81049C16.071 9.68756 16.0691 9.56348 16.0787 9.30521C16.0803 9.262 16.0822 9.21586 16.0843 9.16649C16.0941 8.92636 16.107 8.60992 16.107 8.18368C16.107 6.69867 15.5749 4.86761 14.4317 3.39386C13.2701 1.89654 11.4703 0.76416 8.99608 0.76416ZM3.38513 8.18368C3.38513 7.01433 3.81661 5.51064 4.74537 4.31323C5.65583 3.13943 7.03649 2.26416 8.99608 2.26416C10.9552 2.26416 12.3358 3.1394 13.2465 4.31327C14.1754 5.51071 14.607 7.01441 14.607 8.18368C14.607 8.57679 14.5955 8.86077 14.5857 9.09983C14.5836 9.15147 14.5816 9.20102 14.5798 9.24912C14.5698 9.51496 14.5646 9.76814 14.6101 10.0497C14.6946 10.5728 14.9515 11.139 15.4655 12.2716L15.4655 12.2716L15.4755 12.2936C15.7241 12.9462 15.6442 13.4329 15.4058 13.8352C15.1426 14.279 14.6384 14.696 13.9191 15.0548C12.4805 15.7725 10.4751 16.1118 8.99608 16.1118C7.51653 16.1118 5.51095 15.7725 4.07231 15.0548C3.3531 14.696 2.84894 14.2791 2.58593 13.8353C2.3476 13.4331 2.26777 12.9464 2.51665 12.2937L2.52668 12.2716C3.04065 11.139 3.29757 10.5728 3.38208 10.0497C3.42757 9.76814 3.42234 9.51496 3.41239 9.24912C3.41059 9.20116 3.40858 9.15176 3.40648 9.10028L3.40646 9.09982C3.39671 8.86076 3.38513 8.57678 3.38513 8.18368ZM7.24527 19.0125C6.96933 18.7036 6.49521 18.6769 6.18629 18.9528C5.87737 19.2287 5.85063 19.7029 6.12657 20.0118C7.73434 21.8117 10.2752 21.7879 11.8647 20.0124C12.141 19.7038 12.1148 19.2297 11.8062 18.9534C11.4976 18.6771 11.0234 18.7033 10.7471 19.0119C9.74803 20.1279 8.25084 20.1383 7.24527 19.0125Z" fill="#C1C1C1"/>
</svg>
