<svg width="14" height="12" viewBox="0 0 14 12" fill="none" xmlns="http://www.w3.org/2000/svg">
<path fill-rule="evenodd" clip-rule="evenodd" d="M7.74216 0.356655C7.50599 0.6094 7.50682 1.0183 7.74401 1.26996L11.5934 5.35412H0.939366L0.857129 5.36002C0.561313 5.40278 0.333313 5.67298 0.333313 5.99993C0.333313 6.35659 0.604652 6.64573 0.939366 6.64573H11.5921L7.74397 10.7298L7.68515 10.8021C7.50862 11.0545 7.52748 11.4133 7.7422 11.6431C7.97838 11.8958 8.36211 11.8967 8.59928 11.645L13.4739 6.47212C13.5873 6.3593 13.66 6.20062 13.6661 6.02381C13.6722 5.85007 13.6129 5.67419 13.4881 5.54179L8.59925 0.354688L8.53115 0.292315C8.29351 0.105272 7.95686 0.126887 7.74216 0.356655Z" fill="#E23E3E"/>
</svg>
