<svg width="16" height="14" viewBox="0 0 16 14" fill="none" xmlns="http://www.w3.org/2000/svg">
<path fill-rule="evenodd" clip-rule="evenodd" d="M7.10938 0.227995C7.39279 0.531289 7.3918 1.02197 7.10717 1.32396L2.48795 6.22495H15.2727L15.3714 6.23203C15.7264 6.28334 16 6.60758 16 6.99992C16 7.42792 15.6744 7.77488 15.2727 7.77488H2.48945L7.10721 12.6758L7.1778 12.7625C7.38964 13.0654 7.367 13.496 7.10934 13.7717C6.82592 14.075 6.36544 14.076 6.08084 13.774L0.231311 7.56655C0.0952024 7.43117 0.00791931 7.24076 0.000679016 7.02859C-0.00667 6.82009 0.0645323 6.60904 0.214283 6.45015L6.08088 0.225635L6.1626 0.150788C6.44777 -0.0736647 6.85175 -0.0477264 7.10938 0.227995Z" fill="#303030"/>
</svg>
