<svg width="16" height="12" viewBox="0 0 16 12" fill="none" xmlns="http://www.w3.org/2000/svg">
<path fill-rule="evenodd" clip-rule="evenodd" d="M8.3004 2.69637C10.5348 2.69647 12.6838 3.55502 14.3031 5.09458C14.4251 5.21344 14.62 5.21194 14.7401 5.09122L15.9058 3.9148C15.9666 3.85357 16.0005 3.77063 16 3.68434C15.9995 3.59804 15.9646 3.5155 15.9031 3.45499C11.6527 -0.618318 4.94737 -0.618318 0.697047 3.45499C0.635477 3.51546 0.600547 3.59797 0.599983 3.68427C0.599408 3.77056 0.633259 3.85353 0.694022 3.9148L1.86003 5.09122C1.98004 5.21212 2.17511 5.21362 2.29698 5.09458C3.91655 3.55492 6.06577 2.69636 8.3004 2.69637ZM8.3004 6.52376C9.52806 6.52368 10.7119 6.97999 11.6219 7.80403C11.745 7.92098 11.9389 7.91845 12.0589 7.79832L13.2232 6.6219C13.2845 6.5602 13.3185 6.47649 13.3177 6.3895C13.3168 6.30251 13.281 6.21951 13.2185 6.15907C10.4473 3.58132 6.15582 3.58132 3.38466 6.15907C3.32206 6.21951 3.28635 6.30256 3.28553 6.38957C3.2847 6.47658 3.31885 6.56029 3.38028 6.6219L4.54427 7.79832C4.66425 7.91845 4.85814 7.92098 4.98122 7.80403C5.89063 6.98054 7.07354 6.52426 8.3004 6.52376ZM10.5379 9.33136C10.6002 9.27024 10.6345 9.18614 10.6327 9.09892C10.6309 9.01169 10.5932 8.92906 10.5285 8.87054C9.2423 7.78264 7.35849 7.78264 6.07226 8.87054C6.00751 8.92901 5.96974 9.01161 5.9679 9.09884C5.96605 9.18607 6.00029 9.2702 6.06251 9.33136L8.07688 11.3639C8.13592 11.4236 8.2164 11.4572 8.3004 11.4572C8.38439 11.4572 8.46487 11.4236 8.52391 11.3639L10.5379 9.33136Z" fill="#303030"/>
</svg>
