<svg width="24" height="24" viewBox="0 0 24 24" fill="none" xmlns="http://www.w3.org/2000/svg">
<rect opacity="0" width="24" height="24" fill="white"/>
<path fill-rule="evenodd" clip-rule="evenodd" d="M4.08059 11.4315C4.08059 7.35147 7.46171 4.04398 11.6325 4.04398C15.8034 4.04398 19.1845 7.35147 19.1845 11.4315C19.1845 15.5115 15.8034 18.8189 11.6325 18.8189C7.46171 18.8189 4.08059 15.5115 4.08059 11.4315ZM11.6325 2.4C6.53355 2.4 2.4 6.44352 2.4 11.4315C2.4 16.4194 6.53355 20.4629 11.6325 20.4629C13.7683 20.4629 15.7347 19.7535 17.2989 18.5624L20.1663 21.36C20.4949 21.6806 21.0269 21.6799 21.3547 21.3585C21.6824 21.0371 21.6817 20.5166 21.3531 20.196L18.5269 17.4385C19.9813 15.8424 20.8651 13.7379 20.8651 11.4315C20.8651 6.44352 16.7315 2.4 11.6325 2.4Z" fill="#303030"/>
</svg>
