<svg width="16" height="4" viewBox="0 0 16 4" fill="none" xmlns="http://www.w3.org/2000/svg">
<path fill-rule="evenodd" clip-rule="evenodd" d="M2.16667 0.333313C1.24619 0.333313 0.5 1.07951 0.5 1.99998C0.5 2.92045 1.24619 3.66665 2.16667 3.66665C3.08714 3.66665 3.83333 2.92045 3.83333 1.99998C3.83333 1.07951 3.08714 0.333313 2.16667 0.333313ZM6.33333 1.99998C6.33333 1.07951 7.07952 0.333313 8 0.333313C8.92048 0.333313 9.66667 1.07951 9.66667 1.99998C9.66667 2.92045 8.92048 3.66665 8 3.66665C7.07952 3.66665 6.33333 2.92045 6.33333 1.99998ZM12.1667 1.99998C12.1667 1.07951 12.9129 0.333313 13.8333 0.333313C14.7538 0.333313 15.5 1.07951 15.5 1.99998C15.5 2.92045 14.7538 3.66665 13.8333 3.66665C12.9129 3.66665 12.1667 2.92045 12.1667 1.99998Z" fill="#303030"/>
</svg>
