<svg width="14" height="12" viewBox="0 0 14 12" fill="none" xmlns="http://www.w3.org/2000/svg">
<path fill-rule="evenodd" clip-rule="evenodd" d="M7.74222 0.356655C7.50605 0.6094 7.50688 1.0183 7.74407 1.26996L11.5934 5.35412H0.939427L0.85719 5.36002C0.561374 5.40278 0.333374 5.67298 0.333374 5.99993C0.333374 6.35659 0.604713 6.64573 0.939427 6.64573H11.5922L7.74403 10.7298L7.68521 10.8021C7.50868 11.0545 7.52754 11.4133 7.74226 11.6431C7.97844 11.8958 8.36217 11.8967 8.59934 11.645L13.4739 6.47212C13.5874 6.3593 13.6601 6.20062 13.6661 6.02381C13.6723 5.85007 13.6129 5.67419 13.4881 5.54179L8.59931 0.354688L8.53121 0.292315C8.29357 0.105272 7.95692 0.126887 7.74222 0.356655Z" fill="#E23E3E"/>
</svg>
